<svg width="24" height="24" viewBox="0 0 24 24" fill="none" xmlns="http://www.w3.org/2000/svg">
<path fill-rule="evenodd" clip-rule="evenodd" d="M18.9497 1.00201C18.9497 0.111096 20.0269 -0.335056 20.6568 0.294903L23.1924 2.83044C23.5829 3.22096 23.5829 3.85412 23.1924 4.24466L20.6568 6.78018C20.0269 7.41015 18.9497 6.96399 18.9497 6.07307V4.5878H10C8.89542 4.5878 8 5.48323 8 6.5878V13.5878H6V6.5878C6 4.37866 7.79086 2.5878 10 2.5878H18.9497V1.00201ZM2 8.00001H4V10H2L2 22H22V10H10V8.00001H22C23.1046 8.00001 24 8.89544 24 10V22C24 23.1046 23.1046 24 22 24H2C0.89543 24 0 23.1046 0 22V10C0 8.89544 0.895431 8.00001 2 8.00001Z" fill="#7a7a7a"/>
</svg>
