<svg width="21" height="21" viewBox="0 0 21 21" fill="none" xmlns="http://www.w3.org/2000/svg">
<path fill-rule="evenodd" clip-rule="evenodd" d="M10.5 0H8.75L8.25857 2.94857C8.02672 3.01728 7.79932 3.09639 7.57693 3.18534C7.29408 3.29823 7.01644 3.42818 6.74561 3.57518L4.31327 1.8378L3.07583 3.07523L3.07603 3.07543L1.83879 4.31267L3.57596 6.74471C3.49732 6.88958 3.42356 7.0364 3.35468 7.18492C3.23936 7.43305 3.13659 7.68819 3.04718 7.94953C3.01226 8.05161 2.97937 8.15464 2.94857 8.25857L0 8.75V10.5V12.25L2.94857 12.7414C3.08662 13.2072 3.26659 13.655 3.48412 14.0804C3.51387 14.1387 3.54439 14.1966 3.57569 14.2543L1.83805 16.687L3.07549 17.9244L4.9315 16.0684C4.93153 16.0685 4.93157 16.0685 4.93161 16.0685L3.07574 17.9244L4.31317 19.1619L6.74566 17.4244C6.84864 17.4803 6.9526 17.5337 7.05746 17.5847C7.4414 17.7716 7.84281 17.9282 8.25857 18.0514L8.75 21H10.5H12.25L12.7414 18.0514C12.9688 17.984 13.192 17.9066 13.4103 17.8198C13.6979 17.7056 13.9802 17.5738 14.2554 17.4244L16.6877 19.1618L17.9251 17.9243L16.0691 16.0683L16.0693 16.0681L17.9256 17.9243L19.163 16.6869L17.4254 14.2542C17.6682 13.8068 17.8645 13.3408 18.0142 12.8633C18.0269 12.8228 18.0393 12.7822 18.0514 12.7414L21 12.25V10.5V8.75L18.0514 8.25857C17.8975 7.73828 17.6887 7.23076 17.4251 6.74511L19.1624 4.3129L17.9251 3.07557L17.9254 3.07526L16.688 1.83782L14.2554 3.57534C13.8742 3.36838 13.4795 3.19521 13.0756 3.05584C12.9653 3.01768 12.8539 2.9819 12.7414 2.94857L12.25 0H10.5ZM11.5982 12.8849C12.4995 12.4692 13.125 11.5577 13.125 10.5C13.125 9.05025 11.9497 7.875 10.5 7.875C10.4308 7.875 10.3622 7.87768 10.2943 7.88294C9.84976 7.91777 9.41239 8.06539 9.02868 8.32578C8.89323 8.41771 8.76447 8.52369 8.64443 8.64372C7.61931 9.66884 7.61931 11.3309 8.64443 12.356C8.75753 12.4691 8.87838 12.5697 9.00526 12.6579C9.7746 13.1922 10.766 13.2679 11.5982 12.8849Z" fill="black"/>
</svg>
