<svg width="17" height="22" viewBox="0 0 17 22" fill="none" xmlns="http://www.w3.org/2000/svg">
<mask id="path-1-inside-1_62_44" fill="white">
<path fill-rule="evenodd" clip-rule="evenodd" d="M7.19453 0C6.31701 0 5.60564 0.711371 5.60564 1.58889V8.55556H5.60582V11.2756C4.9141 10.9483 3.58292 10.328 2.7945 10.0222C2.60187 9.94752 2.429 9.86417 2.27809 9.78121C1.85256 9.54729 1.29342 9.5424 0.934118 9.86903C0.547861 10.2202 0.528364 10.8214 0.887132 11.2006C1.46999 11.8166 2.3182 12.7296 2.91672 13.4444C3.86465 14.5766 5.09759 16.3004 5.60582 17.0209V17.6H16.6058V9.23424C16.6058 8.0229 15.7187 6.99426 14.5205 6.81632L8.78342 5.96434V1.58889C8.78342 0.71137 8.07205 0 7.19453 0ZM16.6056 18.8222H5.60564V22H16.6056V18.8222Z"/>
</mask>
<path fill-rule="evenodd" clip-rule="evenodd" d="M7.19453 0C6.31701 0 5.60564 0.711371 5.60564 1.58889V8.55556H5.60582V11.2756C4.9141 10.9483 3.58292 10.328 2.7945 10.0222C2.60187 9.94752 2.429 9.86417 2.27809 9.78121C1.85256 9.54729 1.29342 9.5424 0.934118 9.86903C0.547861 10.2202 0.528364 10.8214 0.887132 11.2006C1.46999 11.8166 2.3182 12.7296 2.91672 13.4444C3.86465 14.5766 5.09759 16.3004 5.60582 17.0209V17.6H16.6058V9.23424C16.6058 8.0229 15.7187 6.99426 14.5205 6.81632L8.78342 5.96434V1.58889C8.78342 0.71137 8.07205 0 7.19453 0ZM16.6056 18.8222H5.60564V22H16.6056V18.8222Z" fill="black"/>
<path d="M5.60564 8.55556H4.62787V9.53333H5.60564V8.55556ZM5.60582 8.55556H6.5836V7.57778H5.60582V8.55556ZM5.60582 11.2756L5.18761 12.1595L6.5836 12.82V11.2756H5.60582ZM2.7945 10.0222L2.44096 10.9338H2.44096L2.7945 10.0222ZM2.27809 9.78121L2.74911 8.92436H2.74911L2.27809 9.78121ZM0.934118 9.86903L0.276394 9.14554L0.276393 9.14554L0.934118 9.86903ZM0.887132 11.2006L0.176882 11.8726H0.176882L0.887132 11.2006ZM2.91672 13.4444L3.66643 12.8168L2.91672 13.4444ZM5.60582 17.0209H6.5836V16.7107L6.40479 16.4572L5.60582 17.0209ZM5.60582 17.6H4.62804V18.5778H5.60582V17.6ZM16.6058 17.6V18.5778H17.5836V17.6H16.6058ZM14.5205 6.81632L14.6641 5.84915L14.5205 6.81632ZM8.78342 5.96434H7.80564V6.80763L8.63979 6.93151L8.78342 5.96434ZM5.60564 18.8222V17.8444H4.62787V18.8222H5.60564ZM16.6056 18.8222H17.5834V17.8444H16.6056V18.8222ZM5.60564 22H4.62787V22.9778H5.60564V22ZM16.6056 22V22.9778H17.5834V22H16.6056ZM6.58342 1.58889C6.58342 1.25138 6.85703 0.977778 7.19453 0.977778V-0.977778C5.777 -0.977778 4.62787 0.17136 4.62787 1.58889H6.58342ZM6.58342 8.55556V1.58889H4.62787V8.55556H6.58342ZM5.60582 7.57778H5.60564V9.53333H5.60582V7.57778ZM6.5836 11.2756V8.55556H4.62804V11.2756H6.5836ZM2.44096 10.9338C3.19058 11.2246 4.48911 11.8289 5.18761 12.1595L6.02403 10.3918C5.3391 10.0677 3.97525 9.4314 3.14805 9.1106L2.44096 10.9338ZM1.80706 10.638C1.99172 10.7396 2.2038 10.8419 2.44096 10.9338L3.14805 9.1106C2.99994 9.05316 2.86628 8.98877 2.74911 8.92436L1.80706 10.638ZM1.59184 10.5925C1.5765 10.6065 1.57679 10.5938 1.62384 10.5918C1.67516 10.5895 1.74446 10.6036 1.80706 10.638L2.74911 8.92436C2.06672 8.54923 1.02796 8.4623 0.276394 9.14554L1.59184 10.5925ZM1.59738 10.5286C1.60013 10.5315 1.60359 10.5366 1.60589 10.5428C1.60794 10.5484 1.6086 10.5534 1.60844 10.5579C1.60829 10.5624 1.60724 10.5683 1.60417 10.5751C1.60077 10.5826 1.59593 10.5888 1.59184 10.5925L0.276393 9.14554C-0.519536 9.86911 -0.554113 11.1 0.176882 11.8726L1.59738 10.5286ZM3.66643 12.8168C3.04724 12.0772 2.18119 11.1456 1.59738 10.5286L0.176882 11.8726C0.758789 12.4876 1.58917 13.382 2.16702 14.0721L3.66643 12.8168ZM6.40479 16.4572C5.89823 15.7392 4.64375 13.9841 3.66643 12.8168L2.16702 14.0721C3.08555 15.1692 4.29695 16.8617 4.80685 17.5845L6.40479 16.4572ZM6.5836 17.6V17.0209H4.62804V17.6H6.5836ZM16.6058 16.6222H5.60582V18.5778H16.6058V16.6222ZM15.628 9.23424V17.6H17.5836V9.23424H15.628ZM14.3768 7.78349C15.0957 7.89025 15.628 8.50744 15.628 9.23424H17.5836C17.5836 7.53836 16.3416 6.09826 14.6641 5.84915L14.3768 7.78349ZM8.63979 6.93151L14.3768 7.78349L14.6641 5.84915L8.92705 4.99717L8.63979 6.93151ZM7.80564 1.58889V5.96434H9.7612V1.58889H7.80564ZM7.19453 0.977778C7.53204 0.977778 7.80564 1.25138 7.80564 1.58889H9.7612C9.7612 0.171359 8.61206 -0.977778 7.19453 -0.977778V0.977778ZM5.60564 19.8H16.6056V17.8444H5.60564V19.8ZM6.58342 22V18.8222H4.62787V22H6.58342ZM16.6056 21.0222H5.60564V22.9778H16.6056V21.0222ZM15.6279 18.8222V22H17.5834V18.8222H15.6279Z" fill="black" mask="url(#path-1-inside-1_62_44)"/>
</svg>
