<svg width="21" height="19" viewBox="0 0 21 19" fill="none" xmlns="http://www.w3.org/2000/svg">
<mask id="path-1-inside-1_61_22" fill="white">
<path fill-rule="evenodd" clip-rule="evenodd" d="M21 8C21 12.4183 16.299 16 10.5 16C9.91302 16 9.3373 15.9633 8.77656 15.8928C7.27655 17.7464 4.58733 18.982 1.51933 18.982C1.47966 18.982 1.46067 18.9334 1.48957 18.9063C2.69812 17.7704 3.66649 16.2326 4.2775 14.4445C1.68313 12.9879 0 10.6437 0 8C0 3.58172 4.70101 0 10.5 0C16.299 0 21 3.58172 21 8ZM7 9C7.55228 9 8 8.55229 8 8C8 7.44771 7.55228 7 7 7C6.44772 7 6 7.44771 6 8C6 8.55229 6.44772 9 7 9ZM11 9C11.5523 9 12 8.55229 12 8C12 7.44771 11.5523 7 11 7C10.4477 7 10 7.44771 10 8C10 8.55229 10.4477 9 11 9ZM16 8C16 8.55229 15.5523 9 15 9C14.4477 9 14 8.55229 14 8C14 7.44771 14.4477 7 15 7C15.5523 7 16 7.44771 16 8Z"/>
</mask>
<path fill-rule="evenodd" clip-rule="evenodd" d="M21 8C21 12.4183 16.299 16 10.5 16C9.91302 16 9.3373 15.9633 8.77656 15.8928C7.27655 17.7464 4.58733 18.982 1.51933 18.982C1.47966 18.982 1.46067 18.9334 1.48957 18.9063C2.69812 17.7704 3.66649 16.2326 4.2775 14.4445C1.68313 12.9879 0 10.6437 0 8C0 3.58172 4.70101 0 10.5 0C16.299 0 21 3.58172 21 8ZM7 9C7.55228 9 8 8.55229 8 8C8 7.44771 7.55228 7 7 7C6.44772 7 6 7.44771 6 8C6 8.55229 6.44772 9 7 9ZM11 9C11.5523 9 12 8.55229 12 8C12 7.44771 11.5523 7 11 7C10.4477 7 10 7.44771 10 8C10 8.55229 10.4477 9 11 9ZM16 8C16 8.55229 15.5523 9 15 9C14.4477 9 14 8.55229 14 8C14 7.44771 14.4477 7 15 7C15.5523 7 16 7.44771 16 8Z" fill="black"/>
<path d="M8.77656 15.8928L8.90138 14.9006L8.34925 14.8311L7.99919 15.2637L8.77656 15.8928ZM1.48957 18.9063L0.804708 18.1776L0.804699 18.1776L1.48957 18.9063ZM4.2775 14.4445L5.22378 14.7679L5.49297 13.9801L4.76706 13.5725L4.2775 14.4445ZM10.5 17C13.5987 17 16.4412 16.0442 18.5307 14.4523C20.6209 12.8597 22 10.5877 22 8H20C20 9.83056 19.0286 11.5585 17.3186 12.8614C15.6077 14.1649 13.2003 15 10.5 15V17ZM8.65173 16.8849C9.25395 16.9607 9.87136 17 10.5 17V15C9.95468 15 9.42065 14.9659 8.90138 14.9006L8.65173 16.8849ZM1.51933 19.982C4.83543 19.982 7.83266 18.6489 9.55392 16.5218L7.99919 15.2637C6.72045 16.844 4.33923 17.982 1.51933 17.982V19.982ZM0.804699 18.1776C0.125293 18.8162 0.560588 19.982 1.51933 19.982V17.982C2.39874 17.982 2.79604 19.0507 2.17445 19.6349L0.804699 18.1776ZM3.33122 14.1212C2.76685 15.7727 1.88126 17.1657 0.804708 18.1776L2.17444 19.6349C3.51497 18.375 4.56614 16.6924 5.22378 14.7679L3.33122 14.1212ZM-1 8C-1 11.1019 0.972682 13.7359 3.78794 15.3165L4.76706 13.5725C2.39358 12.24 1 10.1855 1 8H-1ZM10.5 -1C7.40134 -1 4.55875 -0.0442207 2.46934 1.54771C0.379104 3.14027 -1 5.41229 -1 8H1C1 6.16944 1.9714 4.44145 3.68142 3.13858C5.39226 1.83508 7.79967 1 10.5 1V-1ZM22 8C22 5.41229 20.6209 3.14027 18.5307 1.54771C16.4412 -0.0442207 13.5987 -1 10.5 -1V1C13.2003 1 15.6077 1.83508 17.3186 3.13858C19.0286 4.44145 20 6.16944 20 8H22ZM7 8V10C8.10456 10 9 9.10458 9 8H7ZM7 8H9C9 6.89542 8.10456 6 7 6V8ZM7 8V6C5.89544 6 5 6.89542 5 8H7ZM7 8H5C5 9.10458 5.89544 10 7 10V8ZM11 8V10C12.1046 10 13 9.10458 13 8H11ZM11 8H13C13 6.89542 12.1046 6 11 6V8ZM11 8V6C9.89544 6 9 6.89542 9 8H11ZM11 8H9C9 9.10458 9.89544 10 11 10V8ZM15 10C16.1046 10 17 9.10458 17 8H15V10ZM13 8C13 9.10458 13.8954 10 15 10V8H13ZM15 6C13.8954 6 13 6.89542 13 8H15V6ZM17 8C17 6.89542 16.1046 6 15 6V8H17Z" fill="black" mask="url(#path-1-inside-1_61_22)"/>
</svg>
