<svg width="21" height="16" viewBox="0 0 21 16" fill="none" xmlns="http://www.w3.org/2000/svg">
<path fill="#7a7a7a" fill-rule="evenodd" clip-rule="evenodd" d="M5.01334 1.29775C5.30607 0.517145 6.05231 0 6.886 0H15.114C15.9477 0 16.6939 0.517146 16.9867 1.29775L17.25 2H19C20.1046 2 21 2.89543 21 4V14C21 15.1046 20.1046 16 19 16H2C0.89543 16 0 15.1046 0 14V4C0 2.89543 0.895431 2 2 2H4.75L5.01334 1.29775ZM11 14C13.7614 14 16 11.7614 16 9C16 6.23858 13.7614 4 11 4C8.23858 4 6 6.23858 6 9C6 11.7614 8.23858 14 11 14ZM15 9C15 11.2091 13.2091 13 11 13C8.79086 13 7 11.2091 7 9C7 6.79086 8.79086 5 11 5C13.2091 5 15 6.79086 15 9ZM3 4C2.44772 4 2 4.44772 2 5C2 5.55228 2.44772 6 3 6H4C4.55228 6 5 5.55228 5 5C5 4.44772 4.55228 4 4 4H3Z"/>
</svg>
