<svg width="35" height="19" viewBox="0 0 35 19" fill="none" xmlns="http://www.w3.org/2000/svg">
<path fill-rule="evenodd" clip-rule="evenodd" d="M10 1.80952C10 0.810151 10.8102 0 11.8095 0H22.6667C23.666 0 24.4762 0.810152 24.4762 1.80952V5.42857C24.4762 6.42794 23.666 7.2381 22.6667 7.2381H18.5474V8.14282H26.2381C27.7371 8.14282 28.9524 9.35805 28.9524 10.8571V11.7619H32.5712C33.5706 11.7619 34.3807 12.5721 34.3807 13.5715V17.1905C34.3807 18.1899 33.5706 19 32.5712 19H21.7141C20.7147 19 19.9045 18.1899 19.9045 17.1905V13.5715C19.9045 12.5721 20.7147 11.7619 21.7141 11.7619H27.1428V10.8571C27.1428 10.3574 26.7378 9.95235 26.2381 9.95235H9.04759C8.5479 9.95235 8.14283 10.3574 8.14283 10.8571V11.7619H12.6667C13.666 11.7619 14.4762 12.5721 14.4762 13.5715V17.1905C14.4762 18.1899 13.666 19 12.6667 19H1.80952C0.810151 19 0 18.1899 0 17.1905V13.5715C0 12.5721 0.810151 11.7619 1.80952 11.7619H6.33331V10.8571C6.33331 9.35805 7.54853 8.14282 9.04759 8.14282H16.7378V7.2381H11.8095C10.8102 7.2381 10 6.42794 10 5.42857V1.80952Z" fill="#7a7a7a"/>
</svg>
