<svg width="21" height="24" viewBox="0 0 21 24" fill="none" xmlns="http://www.w3.org/2000/svg">
<path fill-rule="evenodd" clip-rule="evenodd" d="M18.4941 4.56219H13.0077C12.9744 4.95022 12.8781 5.33951 12.7132 5.7161C12.2192 6.84456 11.2243 7.5984 10.1034 7.83092L10.7853 6.27321C11.1439 6.02178 11.4402 5.67189 11.6287 5.24135C12.1762 3.99046 11.6061 2.53253 10.3552 1.98496C9.10432 1.43739 7.64639 2.00755 7.09882 3.25843C6.908 3.69436 6.85292 4.15543 6.91509 4.59435L6.2364 6.14479C5.64218 5.16217 5.51878 3.9156 6.01428 2.78368C6.82404 0.933817 8.9801 0.0906514 10.83 0.900418C11.9139 1.37493 12.6523 2.31171 12.9149 3.37829H18.9003L16.3591 0.837102L17.1963 -4.47379e-05L19.929 2.73267C20.5003 3.30398 20.5003 4.23025 19.929 4.80156L17.1963 7.53427L16.3591 6.69712L18.4941 4.56219ZM7.88446 3.91034C8.17407 3.2253 8.96418 2.90475 9.64922 3.19435C10.3343 3.48396 10.6548 4.27407 10.3652 4.95911L8.92127 8.3746L13.1191 10.9333C13.9957 11.4677 14.3488 12.5635 13.949 13.5091L11.1881 20.0399L2.6009 16.4095L2.79191 15.9577C2.63296 15.2278 2.23932 13.4748 1.87293 12.278C1.64162 11.5224 1.28075 10.5298 1.02905 9.85652C0.87412 9.4421 1.08777 8.97917 1.50519 8.83253C1.89348 8.69612 2.32837 8.88447 2.58335 9.20751C2.67378 9.32208 2.78123 9.4442 2.90695 9.5661C3.42157 10.065 4.25614 10.9888 4.68807 11.4725L5.58577 9.34912L5.58525 9.3489L7.88446 3.91034ZM2.1974 17.3636L10.7846 20.9939L9.73583 23.4746L1.14863 19.8443L2.1974 17.3636Z" fill="black"/>
</svg>
